<svg xmlns="http://www.w3.org/2000/svg" xmlns:xlink="http://www.w3.org/1999/xlink" viewBox="0,0,256,256" width="48px" height="48px"><defs><linearGradient x1="1.343" y1="34.12" x2="79.301" y2="-10.888" gradientUnits="userSpaceOnUse" id="color-1"><stop offset="0" stop-color="#262626" stop-opacity="0"></stop><stop offset="1" stop-color="#262626" stop-opacity="0.8"></stop></linearGradient><linearGradient x1="8.321" y1="30.656" x2="21.99" y2="46.946" gradientUnits="userSpaceOnUse" id="color-2"><stop offset="0" stop-color="#262626" stop-opacity="0"></stop><stop offset="1" stop-color="#262626" stop-opacity="0.8"></stop></linearGradient><linearGradient x1="27.633" y1="31.029" x2="41.302" y2="47.319" gradientUnits="userSpaceOnUse" id="color-3"><stop offset="0" stop-color="#262626" stop-opacity="0"></stop><stop offset="1" stop-color="#262626" stop-opacity="0.8"></stop></linearGradient><linearGradient x1="31.771" y1="-9.06" x2="25.003" y2="29.324" gradientUnits="userSpaceOnUse" id="color-4"><stop offset="0" stop-color="#262626" stop-opacity="0"></stop><stop offset="1" stop-color="#262626" stop-opacity="0.8"></stop></linearGradient><linearGradient x1="41.304" y1="-27.653" x2="22.776" y2="23.252" gradientUnits="userSpaceOnUse" id="color-5"><stop offset="0" stop-color="#262626" stop-opacity="0"></stop><stop offset="1" stop-color="#262626" stop-opacity="0.8"></stop></linearGradient><linearGradient x1="1.93" y1="-30.148" x2="31.988" y2="52.436" gradientUnits="userSpaceOnUse" id="color-6"><stop offset="0" stop-color="#262626" stop-opacity="0"></stop><stop offset="1" stop-color="#262626" stop-opacity="0.8"></stop></linearGradient></defs><g transform=""><g fill="none" fill-rule="nonzero" stroke="none" stroke-width="1" stroke-linecap="butt" stroke-linejoin="miter" stroke-miterlimit="10" stroke-dasharray="" stroke-dashoffset="0" font-family="none" font-weight="none" font-size="none" text-anchor="none" style="mix-blend-mode: normal"><g transform="scale(5.33333,5.33333)"><path d="M47,11l-7,19h-22.94c-1.9,0 -3.54,-1.33 -3.92,-3.19l-3.27,-15.81h14.13v7h-5l8,8l8,-8h-5v-7z" fill="url(#color-1)"></path><circle cx="17" cy="41" r="4" fill="url(#color-2)"></circle><circle cx="36" cy="41" r="4" fill="url(#color-3)"></circle><path d="M40,30l-1.47,4" fill="none"></path><path d="M24,18h-5l8,8l8,-8h-5z" fill="url(#color-4)"></path><path d="M30,18v-16h-2c-2.209,0 -4,1.791 -4,4v12z" fill="url(#color-5)"></path><path d="M40,30l-1.47,4h-21.48c-3.77,0 -7.06,-2.68 -7.83,-6.38l-3.36,-16.24c-0.29,-1.38 -1.52,-2.38 -2.93,-2.38h-2.93v-4h2.93c3.3,0 6.18,2.34 6.85,5.57l3.36,16.24c0.38,1.85 2.03,3.19 3.91,3.19z" fill="url(#color-6)"></path></g></g></g></svg>